<?xml version="1.0" encoding="UTF-8"?>
<svg
  xmlns="http://www.w3.org/2000/svg"
  viewBox="0 0 200 200">

  <g style="fill:#ffffff;fill-opacity:1">
    <path d="m 161.102,177.834 c 0,-5.832 -0.074,-13.273 -7.166,-13.273 -7.095,0 -7.166,7.441 -7.166,13.273 0,5.898 0.071,13.345 7.166,13.345 7.092,0 7.166,-7.447 7.166,-13.345 z" fill="#ffffff" id="path1-4" style="fill:#ffffff;fill-opacity:1"/>
    <path d="m 138.988,25.1261 c 0,-3.0013 1.529,-3.6985 2.517,-3.6985 0.996,0 2.517,0.6972 2.517,3.6985 0,2.9998 -1.521,3.7 -2.517,3.7 -0.988,0 -2.517,-0.7002 -2.517,-3.7 z" fill="#ffffff" id="path2-5" style="fill:#ffffff;fill-opacity:1"/>
    <path d="m 125.084,21.8438 h -1.736 v 2.7358 h 1.509 c 1.008,0 2.074,-0.0755 2.074,-1.4335 0,-1.2268 -0.896,-1.3023 -1.847,-1.3023 z" fill="#ffffff" id="path3-5" style="fill:#ffffff;fill-opacity:1"/>
    <path d="m 109.069,21.8438 h -1.738 v 2.7358 h 1.51 c 1.008,0 2.072,-0.0755 2.072,-1.4335 0,-1.2268 -0.885,-1.3023 -1.844,-1.3023 z" fill="#ffffff" id="path4-1" style="fill:#ffffff;fill-opacity:1"/>
    <path d="m 75.4957,21.5992 h -1.8228 v 2.6799 h 2.0386 c 0.7243,0 1.7171,-0.1343 1.7171,-1.3415 0,-0.848 -0.4436,-1.3384 -1.9329,-1.3384 z" fill="#ffffff" id="path5-7" style="fill:ffffff;fill-opacity:1"/>
    <path fill-rule="evenodd" clip-rule="evenodd" d="m 0,0 h 200 v 200 h -67.571 c 0.427,-1.193 0.664,-2.547 0.664,-4.073 0,-1.52 -0.293,-2.963 -0.98,-4.256 h 10.53 v -1.617 h -4.139 v -26.902 c -2.534,0.635 -5.273,0.703 -7.873,0.703 h -8.502 c -1.262,-0.437 -2.71,-0.653 -4.352,-0.653 -6.952,0 -10.112,5.263 -10.112,9.691 0,4.004 2.107,6.389 5.27,7.929 v 0.148 c -2.67,0.418 -5.642,1.642 -7.557,5.503 -0.405,0.813 -0.748,1.517 -1.022,2.126 -1.913,-1.089 -4.7903,-1.312 -11.7727,-1.312 h -7.5146 c -1.0533,0 -1.8259,-0.699 -1.8259,-1.472 0,-2.954 4.5715,-3.474 10.1615,-4.11 h 0.0011 c 1.0557,-0.12 2.1476,-0.244 3.252,-0.389 1.4773,-0.139 7.0956,-2.173 7.0956,-8.775 0,-1.21 -0.372,-2.367 -0.659,-3.258 -0.178,-0.556 -0.324,-1.008 -0.324,-1.304 0,-0.71 1.52,-1.688 2.223,-1.688 0.195,0 0.421,0.324 0.696,0.718 0.425,0.611 0.968,1.388 1.691,1.388 1.477,0 2.251,-1.264 2.251,-2.664 0,-1.829 -1.48,-2.395 -2.737,-2.395 -2.322,0 -4.472,2.316 -5.18,3.931 -1.8259,-2.734 -4.705,-4.067 -8.7777,-4.067 -6.9532,0 -10.113,5.263 -10.113,9.691 0,4.004 2.1065,6.389 5.2648,7.929 v 0.148 c -2.6664,0.418 -7.0227,1.547 -7.0227,5.402 0,0.094 -0.037,0.175 -0.0775,0.264 -0.0261,0.058 -0.0537,0.118 -0.0738,0.187 -0.3471,1.194 -1.0502,3.163 -2.4521,3.163 -1.4787,0 -1.4787,-1.126 -1.4787,-3.231 v -16.716 c 0,-2.811 0,-6.888 -9.5548,-6.888 -8.3551,0 -11.2402,4.217 -11.2402,6.746 0,1.964 1.0578,3.373 2.9561,3.373 1.7519,0 2.8775,-1.194 2.8775,-2.953 0,-1.551 -0.9429,-2.22 -1.5666,-2.662 -0.3081,-0.218 -0.5383,-0.382 -0.5383,-0.569 0,-2.04 4.9825,-2.526 6.5322,-2.526 2.4536,0 5.0565,0.987 5.0565,4.283 v 6.672 c -10.7452,0 -17.4178,3.655 -17.6321,10.186 0,5.195 3.7935,6.884 8.2178,6.884 3.5837,0 7.0936,-1.337 9.4868,-4.287 0.4889,2.598 1.9661,4.287 4.5616,4.287 2.4556,0 4.5045,-1.419 5.4399,-3.55 1.1848,2.561 4.2183,2.979 6.9954,3.362 l 0.1467,0.02 v 0.213 c -3.4951,0.891 -7.9899,2.711 -8.2066,7.37 H 0 Z m 164.637,191.671 v -1.617 h 5.41 v -43.416 h -5.41 v -1.614 h 3.023 c 2.603,0 5.334,-0.145 7.863,-0.634 v 45.664 h 8.334 v -24.577 h -4.705 v -1.622 h 2.321 c 2.6,0 5.334,-0.068 7.868,-0.703 v 26.902 h 4.143 v 1.617 z m 21.893,-37.774 c 1.691,0 3.579,1.54 3.579,3.374 0,2.173 -1.544,3.72 -3.579,3.72 -2.035,0 -3.372,-1.686 -3.372,-3.72 0,-1.834 1.616,-3.374 3.372,-3.374 z m -46.146,23.937 c 0,-8.496 6.178,-14.682 13.552,-14.682 7.375,0 13.552,6.186 13.552,14.682 0,8.497 -6.177,14.751 -13.552,14.751 -7.374,0 -13.552,-6.254 -13.552,-14.751 z m -1.702,-20.648 c 0,-1.822 -1.901,-3.369 -3.587,-3.369 -1.756,0 -3.364,1.547 -3.364,3.369 0,2.04 1.328,3.726 3.364,3.726 2.039,0 3.587,-1.55 3.587,-3.726 z M 5.7375,144.75 v 1.617 h 5.2693 v 43.686 H 5.7375 v 1.618 H 18.381 v -1.618 h -5.2677 v -42.842 h 0.1403 l 13.1355,44.46 h 1.8243 l 13.6244,-44.46 h 0.1433 v 42.842 h -5.4096 v 1.618 h 17.5628 v -1.618 h -5.3402 v -43.686 h 5.3402 V 144.75 H 40.1553 L 29.828,179.308 H 29.6892 L 19.7859,144.75 Z M 61.8421,31.8634 h 2.4611 v -7.4165 h -5.1757 v 2.8866 h 1.7217 c -0.1962,1.0005 -1.1166,1.4924 -2.019,1.4924 -2.3766,0 -2.8549,-2.2091 -2.8549,-3.4721 l -2e-4,-0.0855 c -0.0026,-1.0109 -0.0099,-3.8409 2.588,-3.8409 0.9205,0 1.7006,0.6972 1.8425,1.681 h 3.7407 C 63.5789,19.9381 61.5403,18.07 58.3172,18.07 c -2.8565,0 -6.2411,2.0537 -6.2411,7.1887 0,3.8312 2.3057,6.9261 6.0434,6.9261 1.3822,0 2.7297,-0.5085 3.5958,-1.6991 z m 73.2489,-6.7373 c 0,4.1149 2.571,7.0589 6.414,7.0589 3.849,0 6.416,-2.944 6.416,-7.0589 0,-4.1149 -2.567,-7.0559 -6.416,-7.0559 -3.843,0 -6.414,2.941 -6.414,7.0559 z m -11.743,6.7372 h -3.898 v -13.472 h 6.522 c 3.439,0 4.641,2.6784 4.641,4.6039 0,3.2623 -2.055,4.7924 -4.964,4.7924 h -2.301 z m -16.017,0 h -3.895 v -13.472 h 6.521 c 3.435,0 4.64,2.6784 4.64,4.6039 0,3.2623 -2.056,4.7924 -4.959,4.7924 h -2.307 z m -33.6581,-2e-4 H 69.7737 V 18.3927 h 7.4241 c 2.2136,0 4.1315,1.2992 4.1315,3.8463 0,1.3973 -0.6051,2.87 -1.8983,3.3801 1.0623,0.4315 1.7202,1.6779 1.8621,3.3589 0.0091,0.1178 0.0172,0.2659 0.0264,0.4331 0.0421,0.7683 0.1063,1.9414 0.3976,2.452 h -3.8976 c -0.1962,-0.679 -0.2671,-1.3761 -0.3184,-2.0763 l -10e-4,-0.0119 C 77.3932,28.4959 77.282,27.1642 75.7446,27.1642 H 73.6729 Z M 94.0306,18.3918 h 3.8976 v 8.2616 c 0,3.7377 -1.8967,5.5318 -5.7567,5.5318 -3.866,0 -5.7808,-1.7941 -5.7808,-5.5318 v -8.2616 h 3.9007 v 7.3411 c 0,1.3762 0,3.0934 1.8967,3.0934 1.8425,0 1.8425,-1.7172 1.8425,-3.0934 z" fill="#ffffff" id="path6-1" style="fill:#ffffff;fill-opacity:1"/>
    <path d="m 70.0677,187.697 c 0.5682,-0.554 1.438,-1.402 1.438,-4.177 v -6.532 c -4.5645,0.071 -12.3613,0.846 -12.3613,7.303 0,3.448 2.1759,5.553 5.4081,5.553 2.2468,0 3.7226,-0.569 5.4096,-2.043 0.0333,-0.033 0.0682,-0.067 0.1043,-0.102 z" fill="#ffffff" id="path7-1" style="fill:#ffffff;fill-opacity:1"/>
    <path d="m 133.02,190.054 h -2.059 c -2.182,-2.364 -4.152,-2.767 -13.53,-2.767 h -7.52 c -1.054,0 -1.825,-0.699 -1.825,-1.472 0,-2.954 4.57,-3.474 10.16,-4.11 1.056,-0.12 2.149,-0.244 3.253,-0.389 1.478,-0.139 7.094,-2.173 7.094,-8.775 0,-3.098 -2.039,-5.272 -2.039,-5.272 -0.457,-0.685 -0.98,-1.282 -1.571,-1.792 h 8.037 z" fill="#ffffff" id="path8-5" style="fill:#ffffff;fill-opacity:1"/>
    <path d="m 109.509,199.838 c 0,4.492 4.705,5.974 8.36,5.974 11.945,0 12.438,-6.673 12.438,-7.795 0,-4.147 -1.266,-6.181 -10.188,-6.181 -8.289,0 -10.61,5.615 -10.61,8.002 z" fill="#ffffff" id="path9-27" style="fill:#ffffff;fill-opacity:1"/>
    <path d="m 112.814,172.727 c 0,-6.67 1.688,-8.355 5.195,-8.355 4.216,0 4.774,4.211 4.774,7.727 0,4.353 -0.351,8.002 -5.471,8.002 -3.87,0 -4.498,-4.212 -4.498,-7.374 z" fill="#ffffff" id="path10-6" style="fill:#ffffff;fill-opacity:1"/>
    <path d="m 93.0299,205.812 c -3.6562,0 -8.3626,-1.482 -8.3626,-5.974 0,-2.387 2.3177,-8.002 10.6079,-8.002 8.9168,0 10.1858,2.034 10.1858,6.181 0,1.122 -0.494,7.795 -12.4311,7.795 z" fill="#ffffff" id="path11-1" style="fill:#ffffff;fill-opacity:1"/>
    <path d="m 93.1657,164.372 c -3.5098,0 -5.1953,1.685 -5.1953,8.355 0,3.162 0.6307,7.374 4.4921,7.374 5.1305,0 5.4821,-3.649 5.4821,-8.002 0,-3.516 -0.5614,-7.727 -4.7789,-7.727 z" fill="#ffffff" id="path12" style="fill:#ffffff;fill-opacity:1"/>
  </g>
</svg>
