<?xml version="1.0" encoding="UTF-8" standalone="no"?>
<svg
   viewBox="0 0 820 220"
   version="1.1"
   id="svg18"
   sodipodi:docname="vem-dark.svg"
   inkscape:version="1.4.2 (ebf0e940d0, 2025-05-08)"
   xmlns:inkscape="http://www.inkscape.org/namespaces/inkscape"
   xmlns:sodipodi="http://sodipodi.sourceforge.net/DTD/sodipodi-0.dtd"
   xmlns="http://www.w3.org/2000/svg"
   xmlns:svg="http://www.w3.org/2000/svg">
  <defs
     id="defs18" />
  <sodipodi:namedview
     id="namedview18"
     pagecolor="#ffffff"
     bordercolor="#000000"
     borderopacity="0.25"
     inkscape:showpageshadow="2"
     inkscape:pageopacity="0.0"
     inkscape:pagecheckerboard="0"
     inkscape:deskcolor="#d1d1d1"
     inkscape:zoom="2.7322222"
     inkscape:cx="449.817"
     inkscape:cy="110.16673"
     inkscape:window-width="2560"
     inkscape:window-height="1371"
     inkscape:window-x="0"
     inkscape:window-y="0"
     inkscape:window-maximized="1"
     inkscape:current-layer="svg17" />
  <!-- LEFT LOGO (first <g> you sent) -->
  <g
     id="logo-left"
     fill="#ff076d"
     fill-opacity="1"
     style="fill:#ffffff;fill-opacity:1">
    <path
       d="m 154.01,12.72 c 0.55,-0.94 0.69,-1.78 0.37,-2.33 -0.29,-0.52 -1.1,-0.81 -2.19,-0.81 h -30.34 c -2.92,0 -6.66,2.18 -8.11,4.78 L 50.92,125.73 c -1.26,2.24 -2.67,3.2 -4.03,2.83 -1.41,-0.39 -2.15,-1.9 -2.15,-4.46 V 63.24 c 0,-2.68 -2.08,-4.86 -4.71,-4.86 H 4.75 C 2.13,58.38 0,60.55 0,63.24 v 117.19 c 0,2.68 2.12,4.8 4.75,4.8 H 51.1 c 2.93,0 6.66,-2.17 8.13,-4.75 z m 87.01,48.78 c 0.57,-0.93 0.72,-1.77 0.42,-2.3 -0.33,-0.52 -1.1,-0.82 -2.18,-0.82 h -97.24 c -2.92,0 -6.56,2.03 -7.95,4.45 -1.86,3.31 -2.69,4.77 -3.23,5.49 l 0.11,-0.09 c -0.14,0.24 -1.33,2.29 -3.11,5.48 l -6.06,10.75 -1.34,2.37 -1.81,3.19 c 0,0 -0.05,0.13 -0.6,1.06 l -2.59,4.65 -21.1,37.47 -2.23,4.03 -0.92,1.56 q -0.02,0.06 -0.53,1.02 l -2.65,4.69 -2.87,5.06 -6.31,11.19 -12.1,21.35 c -0.58,0.96 -0.7,1.8 -0.38,2.31 0.28,0.5 1.07,0.81 2.17,0.81 h 96.26 c 2.94,0 6.67,-2.16 8.14,-4.75 l 12.25,-21.37 c 0.52,-0.95 0.68,-1.79 0.37,-2.34 -0.29,-0.49 -1.05,-0.81 -2.14,-0.81 h -32.22 v 0.02 h -35.89 l -0.61,-1.1 9.84,-17.32 1.87,-1.13 h 39.54 c 2.94,0 6.66,-2.18 8.12,-4.74 l 12.12,-21.35 c 0.54,-0.97 0.69,-1.86 0.39,-2.36 -0.28,-0.51 -1.1,-0.79 -2.17,-0.79 h -41.03 l -0.64,-1.11 9.82,-17.31 1.87,-1.1 h 66.26 c 2.93,0 6.66,-2.18 8.14,-4.78 L 241.04,61.51 Z M 387.57,180.42 V 63.24 c 0,-2.68 -2.12,-4.86 -4.76,-4.86 h -39.77 c -2.94,0 -6.69,2.19 -8.17,4.75 l -36.34,63.3 c -1.28,2.25 -2.66,3.17 -4.04,2.79 -1.43,-0.39 -2.12,-1.9 -2.12,-4.48 v -61.5 c 0,-2.68 -2.14,-4.86 -4.76,-4.86 h -30.36 c -2.96,0 -6.68,2.19 -8.19,4.75 l -96.02,167.82 c -0.53,0.91 -0.69,1.77 -0.36,2.27 0.28,0.53 1.06,0.82 2.14,0.82 h 30.77 c 2.94,0 6.7,-2.18 8.16,-4.76 l 63.61,-111.42 c 1.31,-2.26 2.67,-3.19 4.07,-2.8 1.41,0.39 2.14,1.91 2.14,4.51 v 60.87 c 0,2.68 2.12,4.8 4.73,4.8 h 23.82 c 2.93,0 6.68,-2.16 8.17,-4.75 l 36.31,-62.65 c 1.28,-2.24 2.64,-3.17 4.06,-2.78 1.39,0.39 2.13,1.91 2.13,4.51 v 60.87 c 0,2.68 2.14,4.8 4.76,4.8 h 35.25 c 2.64,0 4.76,-2.12 4.76,-4.8"
       id="path1"
       style="fill:#ffffff;fill-opacity:1" />
    <path
       d="M 319.56,49.24 H 317.1 V 0.01 h 2.46 v 8.37 c 2.99,-5.22 8.45,-8.37 14.79,-8.37 9.99,0 17.25,7.61 17.25,18.09 0,10.48 -7.25,18.02 -17.25,18.02 -6.34,0 -11.8,-3.16 -14.8,-8.38 v 21.5 z m 14.8,-46.73 c -8.57,0 -14.8,6.55 -14.8,15.59 0,9.04 6.23,15.52 14.8,15.52 8.57,0 14.8,-6.53 14.8,-15.52 0,-8.99 -6.23,-15.59 -14.8,-15.59"
       id="path2"
       style="fill:#ffffff;fill-opacity:1" />
    <path
       d="M 278.56,49.24 H 276.1 V 0.01 h 2.46 v 8.37 c 2.99,-5.22 8.46,-8.37 14.8,-8.37 9.99,0 17.24,7.61 17.24,18.09 0,10.48 -7.25,18.02 -17.24,18.02 -6.33,0 -11.8,-3.16 -14.8,-8.38 z m 14.8,-46.73 c -8.58,0 -14.8,6.55 -14.8,15.59 0,9.04 6.22,15.52 14.8,15.52 8.58,0 14.78,-6.53 14.78,-15.52 0,-8.99 -6.22,-15.59 -14.78,-15.59"
       id="path3"
       style="fill:#ffffff;fill-opacity:1" />
    <path
       d="m 208.36,31.55 c 0,10.42 -6.44,17.11 -16.34,17.05 -5.53,-0.21 -9.85,-2.11 -13.83,-6.09 l 0.93,-0.95 c 3.66,3.73 7.72,5.48 12.91,5.68 9.1,0.07 15.02,-6.09 15.02,-15.69 v -7.24 c -2.39,6.02 -7.91,9.94 -14.83,9.94 -9.24,0 -16.02,-7.1 -16.02,-16.78 0,-9.68 6.77,-16.89 16.01,-16.89 6.92,0 12.44,3.93 14.83,10.01 V 0.58 h 1.32 z m -1.32,-14.07 c 0,-8.99 -6.25,-15.61 -14.83,-15.61 -8.58,0 -14.75,6.63 -14.75,15.61 0,8.98 6.19,15.49 14.75,15.49 8.56,0 14.83,-6.56 14.83,-15.49"
       id="path4"
       style="fill:#ffffff;fill-opacity:1" />
    <path
       d="M 192.16,49.17 H 192 c -5.64,-0.21 -10.16,-2.2 -14.22,-6.25 l -0.4,-0.41 1.74,-1.76 0.39,0.4 c 3.54,3.61 7.41,5.32 12.53,5.52 4.23,0.05 7.79,-1.32 10.35,-3.9 2.67,-2.69 4.08,-6.58 4.08,-11.22 v -4.78 c -2.91,5.03 -8.17,8.05 -14.26,8.05 -9.61,0 -16.58,-7.29 -16.58,-17.35 0,-10.06 6.97,-17.46 16.58,-17.46 6.1,0 11.36,3.05 14.26,8.1 v -8.1 h 2.46 v 31.54 c 0,5.36 -1.65,9.85 -4.78,13.01 -2.98,3.02 -7.12,4.6 -11.98,4.6 m 0.05,-46.73 c -8.22,0 -14.19,6.33 -14.19,15.04 0,8.71 5.97,14.92 14.19,14.92 8.22,0 14.26,-6.28 14.26,-14.92 0,-8.64 -6,-15.04 -14.26,-15.04"
       id="path5"
       style="fill:#ffffff;fill-opacity:1" />
    <path
       d="m 219.78,10.12 c 2.06,-5.95 6.65,-9.4 13.17,-9.53 v 1.35 c -7.79,0.2 -12.57,5.54 -13.17,14.47 v 19.14 h -1.32 V 0.58 h 1.32 v 9.53 z"
       id="path6"
       style="fill:#ffffff;fill-opacity:1" />
    <path
       d="m 220.35,36.12 h -2.46 V 0.01 h 2.46 v 7.4 c 2.5,-4.68 6.89,-7.28 12.59,-7.4 h 0.58 c 0,0 0,2.49 0,2.49 l -0.55,0.02 c -7.45,0.18 -12.03,5.26 -12.62,13.93 z"
       id="path7"
       style="fill:#ffffff;fill-opacity:1" />
    <path
       d="m 265.17,35.54 h -1.32 V 25.33 c -2.12,6.42 -7.1,10.08 -14.29,10.21 -8.38,0 -13.3,-5.14 -13.3,-13.79 V 0.58 h 1.34 v 21.17 c 0,7.84 4.45,12.44 11.97,12.44 8.97,-0.21 14.29,-6.36 14.29,-16.51 V 0.58 h 1.32 v 34.96 z"
       id="path8"
       style="fill:#ffffff;fill-opacity:1" />
    <path
       d="m 265.74,36.12 h -2.46 v -7.98 c -2.62,5.05 -7.39,7.86 -13.72,7.98 -8.69,0 -13.87,-5.37 -13.87,-14.37 V 0.01 h 2.46 v 21.74 c 0,7.54 4.16,11.87 11.4,11.87 8.6,-0.19 13.72,-6.14 13.72,-15.92 V 0.01 h 2.46 v 36.1 z"
       id="path9"
       style="fill:#ffffff;fill-opacity:1" />
    <path
       d="m 387.86,18.03 c 0,10.21 -7.11,17.51 -16.69,17.51 -9.58,0 -16.7,-7.29 -16.7,-17.51 0,-10.22 7.11,-17.45 16.7,-17.45 9.59,0 16.69,7.31 16.69,17.45 m -32.05,0 c 0,9.53 6.44,16.16 15.36,16.16 8.92,0 15.35,-6.63 15.35,-16.16 0,-9.53 -6.44,-16.09 -15.35,-16.09 -8.91,0 -15.36,6.62 -15.36,16.09"
       id="path10"
       style="fill:#ffffff;fill-opacity:1" />
    <path
       d="m 371.16,36.11 c -10,0 -17.25,-7.61 -17.25,-18.08 0,-10.47 7.26,-18.01 17.25,-18.01 9.99,0 17.25,7.57 17.25,18.01 0,10.44 -7.25,18.08 -17.25,18.08 m 0,-33.6 c -8.7,0 -14.8,6.38 -14.8,15.52 0,9.14 6.09,15.58 14.8,15.58 8.71,0 14.8,-6.41 14.8,-15.58 0,-9.17 -6.09,-15.52 -14.8,-15.52"
       id="path11"
       style="fill:#ffffff;fill-opacity:1" />
  </g>
  <svg
     x="450"
     y="0"
     width="400"
     height="220"
     viewBox="180 220 520 140"
     version="1.1"
     id="svg17">
    <g
       id="logo-right"
       fill="#ff076d"
       fill-opacity="1"
       transform="matrix(1,0,0,-1,0,595.2751)"
       style="fill:#ffffff;fill-opacity:1">
      <path
         d="m 259.0332,315.6791 h 16.035 v 24.475 l -42.621,24.607 v -22.496 c 0,0 0,-26.586 26.586,-26.586"
         id="path12"
         style="fill:#ffffff;fill-opacity:1" />
      <path
         d="m 201.291,315.6791 h -16.035 v 24.475 l 42.621,24.607 v -22.496 c 0,0 0,-26.586 -26.586,-26.586"
         id="path13"
         style="fill:#ffffff;fill-opacity:1" />
      <path
         d="m 259.0332,311.2798 h 16.035 v -24.475 l -42.621,-24.607 v 22.496 c 0,0 0,26.586 26.586,26.586"
         id="path14"
         style="fill:#ffffff;fill-opacity:1" />
      <path
         d="m 201.291,311.2798 h -16.035 v -24.475 l 42.621,-24.607 v 22.496 c 0,0 0,26.586 -26.586,26.586"
         id="path15"
         style="fill:#ffffff;fill-opacity:1" />
      <path
         d="m 540.8129,245.906 c 1.437,-3.216 3.402,-5.969 5.9,-8.26 2.497,-2.293 5.439,-4.054 8.825,-5.285 3.386,-1.231 6.994,-1.847 10.826,-1.847 3.83,0 7.439,0.616 10.825,1.847 3.386,1.231 6.327,2.992 8.825,5.285 2.496,2.291 4.464,5.044 5.9,8.26 1.437,3.215 2.155,6.806 2.155,10.774 0,3.967 -0.718,7.558 -2.155,10.775 -1.436,3.214 -3.404,5.967 -5.9,8.26 -2.498,2.291 -5.439,4.053 -8.825,5.285 -3.386,1.231 -6.995,1.847 -10.825,1.847 -3.832,0 -7.44,-0.616 -10.826,-1.847 -3.386,-1.232 -6.328,-2.994 -8.825,-5.285 -2.498,-2.293 -4.463,-5.046 -5.9,-8.26 -1.437,-3.217 -2.155,-6.808 -2.155,-10.775 0,-3.968 0.718,-7.559 2.155,-10.774 m 16.469,19.907 c 2.155,2.325 5.182,3.489 9.082,3.489 3.899,0 6.926,-1.164 9.081,-3.489 2.155,-2.327 3.232,-5.371 3.232,-9.133 0,-3.763 -1.077,-6.807 -3.232,-9.132 -2.155,-2.327 -5.182,-3.489 -9.081,-3.489 -3.9,0 -6.927,1.162 -9.082,3.489 -2.154,2.325 -3.232,5.369 -3.232,9.132 0,3.762 1.078,6.806 3.232,9.133"
         id="path16"
         style="fill:#ffffff;fill-opacity:1" />
      <path
         d="m 656.6343,312.877 c 0,3.967 -0.718,7.558 -2.155,10.774 -1.436,3.215 -3.404,5.968 -5.9,8.26 -2.498,2.292 -5.439,4.054 -8.825,5.285 -3.386,1.232 -6.995,1.847 -10.825,1.847 -3.832,0 -7.44,-0.615 -10.826,-1.847 -3.386,-1.231 -6.328,-2.993 -8.825,-5.285 -2.498,-2.292 -4.463,-5.045 -5.9,-8.26 -1.437,-3.216 -2.155,-6.807 -2.155,-10.774 0,-3.968 0.718,-7.56 2.155,-10.774 1.437,-3.216 3.402,-5.969 5.9,-8.26 2.497,-2.293 5.439,-4.054 8.825,-5.285 3.386,-1.232 6.994,-1.847 10.826,-1.847 3.83,0 7.439,0.615 10.825,1.847 3.386,1.231 6.327,2.992 8.825,5.285 2.496,2.291 4.464,5.044 5.9,8.26 1.437,3.214 2.155,6.806 2.155,10.774 m -15.392,0 c 0,-3.763 -1.077,-6.808 -3.232,-9.133 -2.155,-2.326 -5.182,-3.488 -9.081,-3.488 -3.9,0 -6.927,1.162 -9.082,3.488 -2.154,2.325 -3.232,5.37 -3.232,9.133 0,3.762 1.078,6.806 3.232,9.133 2.155,2.324 5.182,3.488 9.082,3.488 3.899,0 6.926,-1.164 9.081,-3.488 2.155,-2.327 3.232,-5.371 3.232,-9.133 m -52.469,15.956 h 5.375 v 10.207 h -27.733 c -0.027,0 -0.052,0.003 -0.079,0.003 -0.026,0 -0.052,-0.003 -0.078,-0.003 h -0.409 v -0.017 c -3.648,-0.05 -7.098,-0.649 -10.338,-1.827 -3.387,-1.231 -6.329,-2.993 -8.825,-5.285 -2.498,-2.292 -4.464,-5.045 -5.9,-8.26 -1.437,-3.216 -2.155,-6.807 -2.155,-10.774 0,-3.968 0.718,-7.56 2.155,-10.774 1.436,-3.216 3.402,-5.969 5.9,-8.26 2.496,-2.293 5.438,-4.054 8.825,-5.285 3.386,-1.232 6.993,-1.847 10.825,-1.847 3.831,0 7.44,0.615 10.826,1.847 3.386,1.231 6.327,2.992 8.825,5.285 2.496,2.291 4.463,5.044 5.9,8.26 1.437,3.214 2.155,6.806 2.155,10.774 0,3.967 -0.718,7.558 -2.155,10.774 -0.847,1.894 -1.9,3.608 -3.114,5.182 m -31.518,-6.823 c 2.155,2.324 5.182,3.488 9.081,3.488 3.9,0 6.927,-1.164 9.082,-3.488 2.154,-2.327 3.232,-5.371 3.232,-9.133 0,-3.763 -1.078,-6.808 -3.232,-9.133 -2.155,-2.326 -5.182,-3.488 -9.082,-3.488 -3.899,0 -6.926,1.162 -9.081,3.488 -2.155,2.325 -3.232,5.37 -3.232,9.133 0,3.762 1.077,6.806 3.232,9.133 m -61.823,-13.956 h 35.709 v 4.823 c 0,3.967 -0.548,7.558 -1.642,10.774 -1.095,3.215 -2.651,5.968 -4.668,8.26 -2.019,2.292 -4.482,4.054 -7.388,5.285 -2.909,1.232 -6.141,1.847 -9.697,1.847 -3.832,0 -7.44,-0.615 -10.826,-1.847 -3.386,-1.231 -6.328,-2.993 -8.825,-5.285 -2.498,-2.292 -4.463,-5.045 -5.9,-8.26 -1.436,-3.216 -2.155,-6.807 -2.155,-10.774 0,-3.968 0.719,-7.56 2.155,-10.774 1.437,-3.216 3.402,-5.969 5.9,-8.26 2.497,-2.293 5.439,-4.054 8.825,-5.285 3.386,-1.232 6.994,-1.847 10.826,-1.847 4.035,0 7.935,0.856 11.698,2.565 3.761,1.709 6.875,4.138 9.337,7.286 l -10.774,7.901 c -1.3,-1.78 -2.822,-3.232 -4.566,-4.361 -1.745,-1.129 -3.884,-1.694 -6.414,-1.694 -3.011,0 -5.541,0.872 -7.593,2.617 -2.052,1.745 -3.386,4.087 -4.002,7.029 m 0,10.467 c 0.067,1.231 0.359,2.411 0.872,3.54 0.513,1.129 1.232,2.12 2.155,2.975 0.924,0.856 2.035,1.556 3.335,2.105 1.299,0.546 2.804,0.82 4.515,0.82 2.804,0 5.095,-0.924 6.875,-2.771 1.778,-1.846 2.633,-4.07 2.565,-6.669 z m -29.552,-31.502 c 1.847,0.205 3.625,0.615 5.336,1.231 v 12.826 c -0.685,-0.615 -1.693,-1.01 -3.027,-1.179 -1.334,-0.172 -2.412,-0.257 -3.233,-0.257 -1.641,0 -2.959,0.221 -3.95,0.667 -0.993,0.444 -1.729,1.078 -2.206,1.898 -0.48,0.821 -0.788,1.796 -0.924,2.925 -0.138,1.129 -0.205,2.376 -0.205,3.745 v 16.623 h 13.545 v 12.314 h -13.545 v 14.776 h -15.392 v -14.776 h -9.851 v -12.314 h 9.851 v -23.703 c 0,-2.737 0.462,-5.064 1.385,-6.978 0.924,-1.916 2.206,-3.472 3.848,-4.669 1.642,-1.198 3.556,-2.07 5.747,-2.617 2.188,-0.546 4.582,-0.82 7.182,-0.82 1.779,0 3.592,0.103 5.439,0.308 m -41.096,38.223 c 1.06,-0.172 2.137,-0.428 3.232,-0.77 v 14.058 c -0.753,0.205 -1.574,0.342 -2.463,0.41 -0.889,0.068 -1.779,0.103 -2.667,0.103 -3.422,0 -6.26,-0.77 -8.517,-2.309 -2.258,-1.539 -4.207,-3.847 -5.849,-6.926 h -0.205 v 8.004 h -15.392 v -49.87 h 15.392 v 20.831 c 0,2.462 0.136,4.719 0.41,6.772 0.273,2.052 0.872,3.812 1.796,5.284 0.923,1.471 2.24,2.617 3.95,3.438 1.709,0.821 4.036,1.231 6.978,1.231 1.162,0 2.273,-0.086 3.335,-0.256 m -76.907,-17.188 h 35.709 v 4.823 c 0,3.967 -0.548,7.558 -1.642,10.774 -1.095,3.215 -2.652,5.968 -4.669,8.26 -2.018,2.292 -4.481,4.054 -7.388,5.285 -2.908,1.232 -6.141,1.847 -9.697,1.847 -3.832,0 -7.439,-0.615 -10.825,-1.847 -3.387,-1.231 -6.329,-2.993 -8.825,-5.285 -2.498,-2.292 -4.464,-5.045 -5.9,-8.26 -1.437,-3.216 -2.155,-6.807 -2.155,-10.774 0,-3.968 0.718,-7.56 2.155,-10.774 1.436,-3.216 3.402,-5.969 5.9,-8.26 2.496,-2.293 5.438,-4.054 8.825,-5.285 3.386,-1.232 6.993,-1.847 10.825,-1.847 4.036,0 7.935,0.856 11.698,2.565 3.761,1.709 6.875,4.138 9.338,7.286 l -10.774,7.901 c -1.301,-1.78 -2.822,-3.232 -4.567,-4.361 -1.744,-1.129 -3.883,-1.694 -6.413,-1.694 -3.011,0 -5.541,0.872 -7.593,2.617 -2.053,1.745 -3.387,4.087 -4.002,7.029 m 0,10.467 c 0.067,1.231 0.359,2.411 0.872,3.54 0.513,1.129 1.231,2.12 2.155,2.975 0.923,0.856 2.034,1.556 3.335,2.105 1.298,0.546 2.804,0.82 4.515,0.82 2.804,0 5.095,-0.924 6.875,-2.771 1.778,-1.846 2.632,-4.07 2.565,-6.669 z m -46.227,-14.777 c -2.155,2.325 -3.232,5.37 -3.232,9.133 0,3.762 1.077,6.806 3.232,9.133 2.155,2.324 5.182,3.488 9.082,3.488 1.572,0 3.043,-0.359 4.412,-1.077 1.367,-0.719 2.427,-1.626 3.181,-2.72 l 10.158,10.672 c -2.395,2.463 -5.217,4.19 -8.465,5.183 -3.25,0.99 -6.346,1.487 -9.286,1.487 -3.832,0 -7.44,-0.615 -10.826,-1.847 -3.386,-1.231 -6.329,-2.993 -8.825,-5.285 -2.498,-2.292 -4.463,-5.045 -5.9,-8.26 -1.437,-3.216 -2.155,-6.807 -2.155,-10.774 0,-3.968 0.718,-7.56 2.155,-10.774 1.437,-3.216 3.402,-5.969 5.9,-8.26 2.496,-2.293 5.439,-4.054 8.825,-5.285 3.386,-1.232 6.994,-1.847 10.826,-1.847 2.94,0 6.036,0.497 9.286,1.487 3.248,0.992 6.07,2.72 8.465,5.183 l -10.158,10.672 c -0.89,-1.027 -1.95,-1.916 -3.181,-2.668 -1.231,-0.754 -2.703,-1.129 -4.412,-1.129 -3.9,0 -6.927,1.162 -9.082,3.488"
         id="path17"
         style="fill:#ffffff;fill-opacity:1" />
    </g>
  </svg>
</svg>
