<?xml version="1.0" encoding="utf-8"?>
<!-- Generator: Adobe Illustrator 26.3.1, SVG Export Plug-In . SVG Version: 6.00 Build 0)  -->
<svg version="1.1" id="Layer_1" xmlns="http://www.w3.org/2000/svg" xmlns:xlink="http://www.w3.org/1999/xlink" x="0px" y="0px"
	 viewBox="0 0 120 54" style="enable-background:new 0 0 120 54;" xml:space="preserve">
<style type="text/css">
	.st0{fill:#FFFFFF;}
</style>
<path id="path4768-37-9-3-6-4" class="st0" d="M31.98,4.49c-0.03,0.01-0.07,0.02-0.1,0.01c-4.64,0.04-9.6,1.4-13.39,4.22
	c-5.74,4.29-9.24,9.14-9.09,19.03C9.55,38,17.14,44.56,24.21,46.78c1.74,0.55,3.42,0.89,5.04,1.02c0.61,0.05,1.2,0.07,1.78,0.07
	c4.12-0.01,7.8-1.31,11.05-3.31c5.42-3.32,9.17-7.86,13.18-12.04c6.17-6.41,11.59-12.65,16.46-17.32l0.99-0.93v1.16v0.4v3.75
	c0,0,0,0.01,0,0.01c0,0,0,0.01,0,0.01c0,0,0,0.01,0,0.01c0,0.01-0.01,0.01-0.01,0.01c0,0.01-0.01,0.01-0.01,0.01c0,0-0.01,0-0.01,0
	c0,0,0,0.01,0,0.01c0,0-0.01,0-0.01,0c-1.17,0.32-2.06,1.38-2.06,2.65c0,1.52,1.25,2.78,2.77,2.78c1.52,0,2.77-1.26,2.77-2.78
	c0-1.27-0.89-2.33-2.06-2.65c0,0-0.01,0-0.01,0c0,0,0-0.01,0-0.01c0,0-0.01,0-0.01,0c0,0,0,0,0,0c0,0-0.01-0.01-0.01-0.01
	c0,0,0,0,0,0c0,0-0.01-0.01-0.01-0.01c0,0,0-0.01,0-0.01c0,0,0-0.01,0-0.01c0,0,0-0.01,0-0.01v-5.04v-0.32v-0.75l0.21-0.5
	c0.57-0.5,1.15-1.02,1.71-1.46c5.66-4.47,13.59-4.67,17.87-3.39c3.4,1.02,5.99,2.6,8.06,4.72c0.01,0,0.01,0.01,0.01,0.01l0.79,0.94
	v19.14c0,0,0,0.01,0,0.01c0,0,0,0.01,0,0.01c0,0,0,0.01,0,0.01c0,0.01-0.01,0.01-0.01,0.01c0,0.01-0.01,0.01-0.01,0.01
	c0,0-0.01,0-0.01,0c0,0,0,0.01,0,0.01c0,0-0.01,0-0.01,0c0,0-0.01,0-0.01,0c0,0-0.01,0-0.01,0c0,0-0.01,0-0.01,0c0,0-0.01,0-0.01,0
	c0,0-0.01,0-0.01,0c0,0,0,0,0,0c0,0-0.01,0-0.01-0.01c0,0-0.01,0-0.01,0l-6.11-6.09c0,0,0-0.01,0-0.01c0,0,0,0,0,0
	c0,0-0.01,0-0.01-0.01c0,0,0-0.01,0-0.01c0,0,0-0.01,0-0.01c0,0,0-0.01,0-0.01v-8.68c0,0,0-0.01,0-0.01c0,0,0-0.01,0-0.01
	c0,0,0-0.01,0-0.01c0-0.01,0.01-0.01,0.01-0.01c0-0.01,0.01-0.01,0.01-0.01c0,0,0.01,0,0.01,0c0,0,0-0.01,0-0.01c0,0,0.01,0,0.01,0
	c1.13-0.35,1.97-1.38,1.97-2.62c0-1.51-1.25-2.78-2.77-2.78l0-0.01c-1.52,0-2.76,1.26-2.76,2.78c0,1.15,0.71,2.14,1.72,2.55
	c0,0,0.01,0,0.01,0c0,0,0.01,0,0.01,0c0,0,0,0,0,0c0.01,0,0.01,0.01,0.01,0.01c0,0,0,0.01,0,0.01c0,0,0.01,0,0.01,0
	c0,0,0,0.01,0,0.01c0,0,0,0.01,0,0.01c0,0,0,0.01,0,0.01v9.51l2.88,2.86c0,0,0,0.01,0,0.01c0.01,0,0.01,0.01,0.01,0.01
	c0,0,0,0.01,0,0.01c0,0,0,0.01,0,0.01c0,0,0,0.01,0,0.01c0,0,0,0.01,0,0.01c0,0,0,0.01,0,0.01c0,0,0,0.01,0,0.01
	c0,0.01-0.01,0.01-0.01,0.01c0,0,0,0,0,0c0,0,0,0,0,0c0,0.01-0.01,0.01-0.01,0.01c0,0-0.01,0-0.01,0c0,0,0,0.01,0,0.01
	c0,0-0.01,0-0.01,0c0,0-0.01,0-0.01,0c0,0-0.01,0-0.01,0H84.62c0,0-0.01,0-0.01,0c0,0-0.01,0-0.01,0c0,0-0.01,0-0.01,0
	c-0.01,0-0.01-0.01-0.01-0.01c-0.01,0-0.01-0.01-0.01-0.01c0,0,0-0.01,0-0.01c0,0-0.01,0-0.01,0c0,0,0-0.01,0-0.01
	c-0.39-1.07-1.4-1.84-2.6-1.84c-1.52,0-2.77,1.25-2.77,2.76c0,1.52,1.25,2.76,2.77,2.76c1.19,0,2.21-0.78,2.6-1.84
	c0,0,0-0.01,0-0.01c0,0,0.01,0,0.01,0c0,0,0-0.01,0-0.01c0-0.01,0.01-0.01,0.01-0.01c0,0,0,0,0,0c0-0.01,0.01-0.01,0.01-0.01
	c0,0,0.01,0,0.01,0c0,0,0.01,0,0.01,0c0,0,0.01,0,0.01,0h14.55v-0.03c0,0,0-0.01,0-0.01c0,0,0-0.01,0-0.01c0,0,0-0.01,0-0.01
	c0-0.01,0.01-0.01,0.01-0.01c0-0.01,0.01-0.01,0.01-0.01c0,0,0.01,0,0.01,0c0,0,0-0.01,0-0.01c0,0,0.01,0,0.01,0c0,0,0.01,0,0.01,0
	c0,0,0.01,0,0.01,0c0,0,0.01,0,0.01,0c0,0,0.01,0,0.01,0c0,0,0.01,0,0.01,0c0,0,0,0,0,0c0,0,0.01,0,0.01,0.01c0,0,0.01,0,0.01,0
	l3.32,3.3c0,0,0,0.01,0,0.01c0.01,0,0.01,0.01,0.01,0.01c0,0,0,0.01,0,0.01c0,0,0,0.01,0,0.01c0,0,0,0.01,0,0.01v2.61l-0.82,0.94
	c0,0.01-0.01,0.01-0.01,0.01c-1.3,1.33-2.79,2.55-4.51,3.59c-5.66,3.42-14.39,2.68-19.94-1.02c-0.01,0-0.01-0.01-0.01-0.01h0.85
	h0.32h10.17c0,0,0.01,0,0.01,0c0,0,0.01,0,0.01,0c0,0,0.01,0,0.01,0c0.01,0,0.01,0.01,0.01,0.01c0,0,0,0,0,0
	c0.01,0,0.01,0.01,0.01,0.01c0,0,0,0.01,0,0.01c0,0,0.01,0,0.01,0c0,0,0,0.01,0,0.01c0.41,1.02,1.39,1.76,2.55,1.76
	c1.52,0,2.79-1.25,2.79-2.76c0-1.51-1.27-2.76-2.79-2.76v-0.01c-1.23,0-2.25,0.82-2.61,1.93c0,0,0,0.01,0,0.01
	c0,0.01-0.01,0.01-0.01,0.01c0,0.01-0.01,0.01-0.01,0.01c0,0-0.01,0-0.01,0c0,0,0,0.01,0,0.01c0,0-0.01,0-0.01,0c0,0-0.01,0-0.01,0
	c0,0-0.01,0-0.01,0H76.42H76.1h-0.88l-0.18-0.14v-0.01c-0.02-0.01-0.03-0.02-0.04-0.03c0,0-0.01,0-0.01,0
	c-4-3.56-5.41-5.08-7.43-7.26c0.2-0.42,0.34-0.89,0.34-1.38c0-1.82-1.5-3.32-3.32-3.32c-1.82,0-3.32,1.5-3.32,3.32
	c0,1.82,1.5,3.32,3.32,3.32c0.37,0,0.72-0.08,1.05-0.2c2.2,2.37,3.58,3.89,8.48,8.21c6.31,5.57,17.16,6.96,24.59,2.47
	c7.18-4.34,11.27-11.47,11.3-18.69c0.01-3.75-1.5-8.98-4.19-12.77c-2.62-3.69-6.28-6.39-11.23-7.87c-5.14-1.54-13.71-1.35-20.24,3.8
	c-6.28,4.96-13.01,13.06-20.93,21.29c-3.32,3.45-6.32,6.9-9.96,9.72l-5.31-5.06l6.44-3.71c0.53,0.42,1.18,0.68,1.9,0.68
	c1.68,0,3.06-1.38,3.06-3.06c0-1.68-1.38-3.06-3.06-3.06c-1.68,0-3.06,1.38-3.06,3.06c0,0.34,0.08,0.67,0.18,0.98l-7.08,4.09h-7.27
	v-6.84c1.3-0.36,2.27-1.54,2.27-2.94c0-1.68-1.38-3.06-3.06-3.06c-1.68,0-3.06,1.38-3.06,3.06c0,1.4,0.97,2.59,2.27,2.94v6.84h-9.73
	V12.55c0.67-0.59,1.35-1.17,2.13-1.76c4.52-3.38,11.66-4.31,16.66-3.12c0,0,0.01,0,0.01,0l1.52,0.46c0.01,0,0.01,0.01,0.01,0.01
	c0.03,0.01,0.04,0.01,0.07,0.02v6.42H26.93c-0.35-1.31-1.53-2.29-2.95-2.29c-1.68,0-3.06,1.38-3.06,3.06c0,1.68,1.38,3.06,3.06,3.06
	c1.38,0,2.54-0.94,2.92-2.2h13.07V8.9c3.86,1.96,6.72,5.25,11.26,10.17c-0.25,0.46-0.42,0.98-0.42,1.54c0,1.82,1.5,3.32,3.32,3.32
	c1.82,0,3.32-1.5,3.32-3.32c0-1.82-1.5-3.32-3.32-3.32c-0.3,0-0.59,0.07-0.87,0.14c-5.1-5.55-8.18-9.37-13.68-11.6
	c-2.22-0.9-4.85-1.35-7.6-1.34L31.98,4.49z M23.97,14c0.76,0,1.36,0.61,1.36,1.37c0,0.76-0.6,1.36-1.36,1.36
	c-0.76,0-1.37-0.6-1.37-1.36C22.6,14.6,23.21,14,23.97,14z M95.66,14.09c0.76,0,1.35,0.6,1.35,1.36c0,0.76-0.59,1.35-1.35,1.35
	c-0.76,0-1.36-0.59-1.36-1.35S94.9,14.09,95.66,14.09z M16,14.46v23.88l-0.24-0.25l-0.03-0.03c-0.01,0-0.01-0.01-0.01-0.01
	c-2.19-2.71-3.66-6.16-3.72-10.34c-0.09-6.36,1.2-9.98,3.72-12.96c0-0.01,0.01-0.01,0.01-0.01l0.03-0.03L16,14.46z M104.11,15.72
	c2.01,3.2,3.27,7.79,3.25,10.57c-0.01,3.49-1.14,7-3.25,10.11V15.72z M54.13,19.12c0.83,0,1.48,0.65,1.48,1.48
	c0,0.83-0.65,1.48-1.48,1.48c-0.83,0-1.48-0.65-1.48-1.48C52.65,19.78,53.3,19.12,54.13,19.12z M73.37,20.97
	c0.76,0,1.36,0.6,1.36,1.36c0,0.76-0.6,1.36-1.36,1.36c-0.76,0-1.36-0.6-1.36-1.36C72.01,21.57,72.61,20.97,73.37,20.97L73.37,20.97
	z M28.43,23.24c0.76,0,1.36,0.61,1.36,1.37c0,0.76-0.6,1.36-1.36,1.36c-0.77,0-1.36-0.6-1.36-1.36
	C27.07,23.84,27.67,23.24,28.43,23.24z M46.46,27.95c0.76,0,1.36,0.6,1.36,1.36c0,0.76-0.6,1.36-1.36,1.36
	c-0.77,0-1.37-0.6-1.37-1.36C45.09,28.55,45.69,27.95,46.46,27.95z M64.56,29.69c0.83,0,1.48,0.65,1.48,1.48
	c0,0.83-0.65,1.48-1.48,1.48c-0.83,0-1.48-0.65-1.48-1.48C63.08,30.34,63.73,29.69,64.56,29.69z M81.95,30.12
	c0.76,0,1.36,0.59,1.36,1.35c0,0.76-0.6,1.36-1.36,1.36c-0.76,0-1.36-0.6-1.36-1.36C80.58,30.71,81.19,30.12,81.95,30.12z
	 M17.91,36.09h18.46l5.66,5.4l-0.27,0.19c0,0-0.01,0-0.01,0c-0.34,0.23-0.66,0.46-1.01,0.67c-4.48,2.75-9.46,3.92-15.76,1.94
	c-2.43-0.76-4.92-2.14-7.07-4.03L17.91,36.09z M91.36,39.43c0.76,0,1.36,0.6,1.36,1.36c0,0.76-0.6,1.36-1.36,1.36
	c-0.76,0-1.35-0.6-1.35-1.36C90.01,40.03,90.6,39.43,91.36,39.43z"/>
</svg>
